<svg width="50" height="50" viewBox="0 0 50 50" fill="none" xmlns="http://www.w3.org/2000/svg">
<path fill-rule="evenodd" clip-rule="evenodd" d="M15.3664 10.1232C18.0323 7.54107 21.2435 6.25 25 6.25C28.7566 6.25 31.9526 7.5264 34.5883 10.0792C37.2239 12.6321 38.5417 15.7277 38.5417 19.3662C38.5417 21.1855 38.0721 23.2688 37.133 25.6162C36.1939 27.9636 35.0578 30.1643 33.7249 32.2183C32.3919 34.2723 31.0741 36.1942 29.7714 37.9842C28.4688 39.7741 27.363 41.1972 26.4542 42.2535L25 43.75C24.6365 43.3392 24.1518 42.7964 23.5459 42.1215C22.94 41.4466 21.8494 40.0968 20.2741 38.0722C18.6988 36.0475 17.3204 34.0816 16.1389 32.1743C14.9574 30.267 13.8819 28.1103 12.9125 25.7042C11.9431 23.2981 11.4584 21.1855 11.4584 19.3662C11.4584 15.7277 12.761 12.6467 15.3664 10.1232Z" fill="#2F3542"/>
<path d="M27.0834 19.7917C27.0834 20.9423 26.1506 21.875 25 21.875C23.8494 21.875 22.9167 20.9423 22.9167 19.7917C22.9167 18.6411 23.8494 17.7083 25 17.7083C26.1506 17.7083 27.0834 18.6411 27.0834 19.7917Z" fill="#2F3542"/>
<path d="M32.5 18.3332L25 14.1665L17.5 18.3332L20 19.7221M32.5 18.3332L30 19.7221M32.5 18.3332V18.3332C33.0107 18.5885 33.3333 19.1105 33.3333 19.6815V24.1664M20 19.7221L25 22.4998L30 19.7221M20 19.7221V24.7221L25 27.4998L30 24.7221L30 19.7221" stroke="white" stroke-width="2" stroke-linecap="round" stroke-linejoin="round"/>
</svg>
