<svg width="50" height="50" viewBox="0 0 50 50" fill="none" xmlns="http://www.w3.org/2000/svg">
<path fill-rule="evenodd" clip-rule="evenodd" d="M15.3664 10.1232C18.0323 7.54107 21.2435 6.25 25 6.25C28.7566 6.25 31.9526 7.5264 34.5883 10.0792C37.2239 12.6321 38.5417 15.7277 38.5417 19.3662C38.5417 21.1855 38.0721 23.2688 37.133 25.6162C36.1939 27.9636 35.0578 30.1643 33.7249 32.2183C32.3919 34.2723 31.0741 36.1942 29.7714 37.9842C28.4688 39.7741 27.363 41.1972 26.4542 42.2535L25 43.75C24.6365 43.3392 24.1518 42.7964 23.5459 42.1215C22.94 41.4466 21.8494 40.0968 20.2741 38.0722C18.6988 36.0475 17.3204 34.0816 16.1389 32.1743C14.9574 30.267 13.8819 28.1103 12.9125 25.7042C11.9431 23.2981 11.4584 21.1855 11.4584 19.3662C11.4584 15.7277 12.761 12.6467 15.3664 10.1232Z" fill="#4834D4"/>
<path d="M27.0834 19.7917C27.0834 20.9423 26.1506 21.875 25 21.875C23.8494 21.875 22.9167 20.9423 22.9167 19.7917C22.9167 18.6411 23.8494 17.7083 25 17.7083C26.1506 17.7083 27.0834 18.6411 27.0834 19.7917Z" fill="#4834D4"/>
<path d="M18.75 14.1667H29.9434C30.7113 14.1667 31.1926 14.9961 30.8117 15.6628L28.9091 18.9923C28.553 19.6154 27.8904 20 27.1726 20H21.6666M21.6666 20L20.5395 21.8033C20.1233 22.4694 20.6021 23.3333 21.3875 23.3333H30M21.6666 20L18.4694 13.6056C18.1306 12.928 17.4381 12.5 16.6806 12.5H16.6666M21.6666 26.6667C21.6666 27.1269 21.2935 27.5 20.8333 27.5C20.3731 27.5 20 27.1269 20 26.6667C20 26.2064 20.3731 25.8333 20.8333 25.8333C21.2935 25.8333 21.6666 26.2064 21.6666 26.6667ZM30 26.6667C30 27.1269 29.6269 27.5 29.1666 27.5C28.7064 27.5 28.3333 27.1269 28.3333 26.6667C28.3333 26.2064 28.7064 25.8333 29.1666 25.8333C29.6269 25.8333 30 26.2064 30 26.6667Z" stroke="white" stroke-width="2" stroke-linecap="round" stroke-linejoin="round"/>
</svg>
