<svg width="271" height="311" viewBox="0 0 271 311" fill="none" xmlns="http://www.w3.org/2000/svg">
<circle cx="136" cy="155" r="135" fill="black"/>
<path d="M123.623 146.82L176.988 116.009L215.465 182.653C210.363 188.53 204.103 194.55 196.685 200.712C189.235 206.818 180.999 212.475 171.978 217.683C160.081 224.551 148.316 228.262 136.682 228.814C125.048 229.367 114.004 226.384 103.55 219.865C93.063 213.29 83.6529 202.786 75.3196 188.352C67.8326 175.384 63.8518 162.76 63.3773 150.48C62.8701 138.143 65.9561 126.626 72.6351 115.929C79.338 105.143 89.709 95.697 103.748 87.5916C111.472 83.1319 119.225 79.6331 127.007 77.0952C134.788 74.5572 141.895 72.9347 148.328 72.2277L152.893 104.549C147.169 104.922 141.602 105.956 136.191 107.651C130.747 109.291 125.263 111.705 119.738 114.896C112.352 119.16 107.364 124.257 104.774 130.188C102.24 136.086 101.57 142.412 102.763 149.166C103.923 155.863 106.44 162.566 110.314 169.276C114.741 176.944 119.555 182.809 124.758 186.872C129.984 190.846 135.481 193.01 141.248 193.364C147.039 193.629 152.923 192.036 158.9 188.586C160.873 187.446 163.188 185.922 165.844 184.012C168.557 182.07 170.532 180.479 171.77 179.238L160.589 159.87L138.515 172.615L123.623 146.82Z" fill="white"/>
</svg>
